<svg width="12" height="12" viewBox="0 0 12 12" fill="none" xmlns="http://www.w3.org/2000/svg">
<path d="M3.625 5.18359C3.625 5.33278 3.68426 5.47585 3.78975 5.58134C3.89524 5.68683 4.03832 5.74609 4.1875 5.74609C4.33668 5.74609 4.47976 5.68683 4.58525 5.58134C4.69074 5.47585 4.75 5.33278 4.75 5.18359C4.75 5.03441 4.69074 4.89134 4.58525 4.78585C4.47976 4.68036 4.33668 4.62109 4.1875 4.62109C4.03832 4.62109 3.89524 4.68036 3.78975 4.78585C3.68426 4.89134 3.625 5.03441 3.625 5.18359ZM7.75 5.18359C7.75 5.33278 7.80926 5.47585 7.91475 5.58134C8.02024 5.68683 8.16332 5.74609 8.3125 5.74609C8.46168 5.74609 8.60476 5.68683 8.71025 5.58134C8.81574 5.47585 8.875 5.33278 8.875 5.18359C8.875 5.03441 8.81574 4.89134 8.71025 4.78585C8.60476 4.68036 8.46168 4.62109 8.3125 4.62109C8.16332 4.62109 8.02024 4.68036 7.91475 4.78585C7.80926 4.89134 7.75 5.03441 7.75 5.18359ZM6.25 1C3.35078 1 1 3.35078 1 6.25C1 9.14922 3.35078 11.5 6.25 11.5C9.14922 11.5 11.5 9.14922 11.5 6.25C11.5 3.35078 9.14922 1 6.25 1ZM9.33203 9.33203C8.93125 9.73281 8.46484 10.0469 7.9457 10.2672C7.41016 10.4945 6.83945 10.6094 6.25 10.6094C5.66055 10.6094 5.08984 10.4945 4.55313 10.2672C4.03477 10.0483 3.56392 9.73066 3.1668 9.33203C2.76602 8.93125 2.45195 8.46484 2.23164 7.9457C2.00547 7.41016 1.89062 6.83945 1.89062 6.25C1.89062 5.66055 2.00547 5.08984 2.23281 4.55313C2.45173 4.03477 2.76934 3.56392 3.16797 3.1668C3.56875 2.76602 4.03516 2.45195 4.5543 2.23164C5.08984 2.00547 5.66055 1.89062 6.25 1.89062C6.83945 1.89062 7.41016 2.00547 7.94687 2.23281C8.46523 2.45173 8.93607 2.76934 9.3332 3.16797C9.73398 3.56875 10.048 4.03516 10.2684 4.5543C10.4945 5.08984 10.6094 5.66055 10.6094 6.25C10.6094 6.83945 10.4945 7.41016 10.2672 7.94687C10.0485 8.46503 9.73088 8.93554 9.33203 9.33203ZM8.03125 6.49609H7.46758C7.41836 6.49609 7.37617 6.53359 7.37266 6.58281C7.32812 7.16289 6.8418 7.62109 6.25 7.62109C5.6582 7.62109 5.1707 7.16289 5.12734 6.58281C5.12383 6.53359 5.08164 6.49609 5.03242 6.49609H4.46875C4.45603 6.49608 4.44345 6.49865 4.43176 6.50365C4.42007 6.50865 4.40951 6.51598 4.40074 6.52519C4.39198 6.5344 4.38517 6.54529 4.38074 6.55721C4.37632 6.56913 4.37436 6.58183 4.375 6.59453C4.42656 7.58242 5.24805 8.37109 6.25 8.37109C7.25195 8.37109 8.07344 7.58242 8.125 6.59453C8.12564 6.58183 8.12368 6.56913 8.11926 6.55721C8.11483 6.54529 8.10802 6.5344 8.09926 6.52519C8.09049 6.51598 8.07993 6.50865 8.06824 6.50365C8.05655 6.49865 8.04397 6.49608 8.03125 6.49609Z" fill="black"/>
</svg>
