<svg width="34" height="33" viewBox="0 0 34 33" fill="none" xmlns="http://www.w3.org/2000/svg">
<path d="M30.6487 0.690341C30.0718 0.368885 29.4373 0.164459 28.7814 0.0887541C28.1256 0.0130487 27.4612 0.0675487 26.8264 0.249138C26.1916 0.430727 25.5988 0.735843 25.0818 1.14704C24.5649 1.55823 24.1339 2.06744 23.8137 2.64554L14.4833 19.4597L9.14342 14.1125C8.67981 13.6318 8.12524 13.2484 7.51208 12.9847C6.89892 12.7209 6.23943 12.5821 5.57211 12.5763C4.9048 12.5705 4.243 12.6978 3.62535 12.9508C3.00771 13.2039 2.44657 13.5776 1.97469 14.0501C1.5028 14.5227 1.12962 15.0846 0.876922 15.7031C0.624222 16.3216 0.497061 16.9843 0.50286 17.6525C0.508659 18.3207 0.647301 18.9811 0.910697 19.5951C1.17409 20.2091 1.55697 20.7645 2.03698 21.2287L12.0885 31.2941C13.0384 32.2478 14.32 32.7712 15.6417 32.7712L16.3378 32.7208C17.1081 32.6129 17.8429 32.3274 18.4844 31.8869C19.1258 31.4463 19.6564 30.8626 20.0343 30.1818L32.5987 7.53479C32.9195 6.95716 33.1235 6.32193 33.1991 5.66535C33.2747 5.00877 33.2204 4.3437 33.0394 3.70813C32.8583 3.07256 32.554 2.47893 32.1438 1.96113C31.7336 1.44334 31.2256 1.01152 30.6487 0.690341Z" fill="black"/>
</svg>
