<svg width="33" height="34" viewBox="0 0 33 34" fill="none" xmlns="http://www.w3.org/2000/svg">
<path d="M30.43 1.6275C29.8561 1.30814 29.2248 1.10504 28.5723 1.02982C27.9198 0.95461 27.2589 1.00876 26.6273 1.18917C25.9958 1.36958 25.406 1.67271 24.8917 2.08124C24.3774 2.48976 23.9486 2.99566 23.63 3.57L14.3475 20.275L9.035 14.9625C8.57377 14.485 8.02204 14.104 7.41202 13.842C6.802 13.58 6.1459 13.442 5.48201 13.4363C4.81811 13.4305 4.15971 13.557 3.54523 13.8084C2.93075 14.0598 2.37249 14.4311 1.90303 14.9005C1.43356 15.37 1.0623 15.9283 0.810893 16.5427C0.559489 17.1572 0.43298 17.8156 0.438749 18.4795C0.444518 19.1434 0.58245 19.7995 0.844495 20.4095C1.10654 21.0195 1.48745 21.5713 1.965 22.0325L11.965 32.0325C12.91 32.98 14.185 33.5 15.5 33.5L16.1925 33.45C16.9589 33.3428 17.6899 33.0592 18.3281 32.6215C18.9662 32.1837 19.494 31.6039 19.87 30.9275L32.37 8.4275C32.6891 7.85363 32.8921 7.22252 32.9673 6.5702C33.0426 5.91789 32.9885 5.25714 32.8084 4.6257C32.6283 3.99425 32.3255 3.40447 31.9174 2.89004C31.5093 2.37561 31.0039 1.9466 30.43 1.6275Z" fill="#0085FF"/>
</svg>
