<svg width="45" height="45" viewBox="0 0 45 45" fill="none" xmlns="http://www.w3.org/2000/svg">
<path d="M6.42333 6.43636C6.42333 4.76792 7.0852 3.16782 8.26334 1.98806C9.44149 0.808292 11.0394 0.145508 12.7055 0.145508C14.3717 0.145508 15.9696 0.808292 17.1477 1.98806C18.3259 3.16782 18.9878 4.76792 18.9878 6.43636C18.9878 8.1048 18.3259 9.7049 17.1477 10.8847C15.9696 12.0644 14.3717 12.7272 12.7055 12.7272C11.0394 12.7272 9.44149 12.0644 8.26334 10.8847C7.0852 9.7049 6.42333 8.1048 6.42333 6.43636V6.43636ZM27.7169 11.4187L27.8488 11.5194C29.1816 12.5086 30.851 12.9298 32.4927 12.6911C34.1345 12.4523 35.6152 11.573 36.6119 10.2449C37.6086 8.91693 38.0402 7.24804 37.8126 5.60251C37.5851 3.95697 36.7167 2.46838 35.3971 1.46159C34.0775 0.454805 32.4138 0.0115649 30.7691 0.228601C29.1243 0.445637 27.6321 1.30533 26.618 2.62006C25.6039 3.93479 25.1503 5.59783 25.3562 7.24623C25.562 8.89463 26.4107 10.3946 27.7169 11.4187V11.4187ZM16.6885 15.8726C17.083 15.1245 17.6242 14.4638 18.2796 13.93C18.935 13.3962 19.6912 13.0002 20.503 12.7658C21.3148 12.5314 22.1654 12.4634 23.004 12.5658C23.8427 12.6682 24.6521 12.9389 25.3838 13.3618C26.1155 13.7847 26.7546 14.351 27.2627 15.0269C27.7708 15.7028 28.1375 16.4744 28.341 17.2955C28.5444 18.1166 28.5804 18.9704 28.4467 19.8057C28.313 20.6411 28.0125 21.4408 27.563 22.1572C26.6983 23.5353 25.3339 24.5242 23.7564 24.9161C22.1789 25.308 20.5111 25.0725 19.1034 24.2589C17.6957 23.4454 16.6577 22.1172 16.2074 20.5534C15.757 18.9896 15.9295 17.3118 16.6885 15.8726V15.8726ZM4.85277 15.8726H13.2395C12.6813 17.4691 12.5599 19.1861 12.888 20.8454C13.2161 22.5048 13.9817 24.0459 15.1053 25.3089H14.2761C12.6567 25.3087 11.0767 25.8096 9.75254 26.7432C8.42835 27.6767 7.42464 28.9973 6.87879 30.524C5.82442 30.0999 4.83722 29.5246 3.94813 28.8161C1.58602 26.9131 0.141109 24.1011 0.141109 20.5908C0.141109 19.3394 0.637515 18.1394 1.52112 17.2545C2.40473 16.3697 3.60316 15.8726 4.85277 15.8726V15.8726ZM29.9816 25.3089C31.6006 25.3089 33.1801 25.8099 34.5037 26.7435C35.8274 27.6771 36.8305 28.9975 37.3758 30.524C38.4438 30.0868 39.4332 29.5175 40.3096 28.8161C42.6717 26.9131 44.1166 24.1011 44.1166 20.5908C44.1166 19.3394 43.6202 18.1394 42.7366 17.2545C41.853 16.3697 40.6546 15.8726 39.405 15.8726H31.0182C31.3637 16.8572 31.5522 17.9172 31.5522 19.0181C31.5551 21.3397 30.7003 23.5805 29.1524 25.3089H29.9816ZM34.3384 31.3733C34.5677 31.9269 34.6933 32.5371 34.6933 33.1725C34.6933 36.6828 33.2515 39.4948 30.8863 41.3978C28.5587 43.2693 25.4365 44.1815 22.1289 44.1815C18.8213 44.1815 15.699 43.2693 13.3715 41.3978C11.0093 39.4948 9.56443 36.6828 9.56443 33.1725C9.56278 32.5524 9.68352 31.9381 9.91971 31.365C10.1559 30.7918 10.5029 30.271 10.9408 29.8325C11.3786 29.3941 11.8987 29.0466 12.4711 28.8101C13.0435 28.5736 13.6569 28.4527 14.2761 28.4543H29.9816C30.9149 28.4541 31.8272 28.7314 32.6028 29.2511C33.3784 29.7708 33.9825 30.5094 34.3384 31.3733Z" fill="#0085FF"/>
</svg>
