<svg width="44" height="45" viewBox="0 0 44 45" fill="none" xmlns="http://www.w3.org/2000/svg">
<path d="M6.28222 6.29085C6.28222 4.62241 6.94409 3.02231 8.12224 1.84255C9.30038 0.662784 10.8983 0 12.5644 0C14.2306 0 15.8285 0.662784 17.0066 1.84255C18.1848 3.02231 18.8466 4.62241 18.8466 6.29085C18.8466 7.95929 18.1848 9.55939 17.0066 10.7392C15.8285 11.9189 14.2306 12.5817 12.5644 12.5817C10.8983 12.5817 9.30038 11.9189 8.12224 10.7392C6.94409 9.55939 6.28222 7.95929 6.28222 6.29085ZM27.5758 11.2732L27.7077 11.3739C29.0405 12.3631 30.7099 12.7843 32.3516 12.5456C33.9934 12.3068 35.4741 11.4275 36.4708 10.0994C37.4675 8.77142 37.8991 7.10254 37.6715 5.457C37.4439 3.81146 36.5756 2.32287 35.256 1.31608C33.9364 0.309297 32.2727 -0.133943 30.628 0.0830931C28.9832 0.300129 27.491 1.15982 26.4769 2.47455C25.4628 3.78929 25.0092 5.45232 25.2151 7.10072C25.4209 8.74912 26.2696 10.2491 27.5758 11.2732ZM16.5474 15.7271C16.9419 14.979 17.4831 14.3183 18.1385 13.7845C18.7939 13.2507 19.5501 12.8547 20.3619 12.6203C21.1737 12.3859 22.0243 12.3178 22.8629 12.4203C23.7016 12.5227 24.511 12.7934 25.2427 13.2163C25.9744 13.6392 26.6135 14.2055 27.1216 14.8814C27.6297 15.5573 27.9964 16.3289 28.1999 17.15C28.4033 17.9711 28.4393 18.8249 28.3056 19.6602C28.1719 20.4956 27.8713 21.2953 27.4219 22.0117C26.5572 23.3898 25.1928 24.3787 23.6153 24.7706C22.0378 25.1625 20.37 24.927 18.9623 24.1134C17.5546 23.2999 16.5166 21.9717 16.0662 20.4079C15.6159 18.844 15.7884 17.1663 16.5474 15.7271ZM4.71166 15.7271H13.0984C12.5402 17.3236 12.4188 19.0406 12.7469 20.6999C13.075 22.3593 13.8406 23.9004 14.9642 25.1634H14.135C12.5155 25.1632 10.9356 25.6641 9.61143 26.5977C8.28725 27.5312 7.28353 28.8517 6.73768 30.3785C5.68331 29.9544 4.69611 29.3791 3.80702 28.6705C1.44491 26.7676 0 23.9556 0 20.4453C0 19.1939 0.496406 17.9939 1.38001 17.109C2.26362 16.2242 3.46205 15.7271 4.71166 15.7271ZM29.8405 25.1634C31.4595 25.1634 33.039 25.6644 34.3626 26.598C35.6863 27.5316 36.6894 28.852 37.2347 30.3785C38.3027 29.9413 39.2921 29.372 40.1685 28.6705C42.5306 26.7676 43.9755 23.9556 43.9755 20.4453C43.9755 19.1939 43.4791 17.9939 42.5955 17.109C41.7119 16.2242 40.5135 15.7271 39.2639 15.7271H30.8771C31.2226 16.7116 31.4111 17.7717 31.4111 18.8726C31.414 21.1942 30.5592 23.4349 29.0113 25.1634H29.8405ZM34.1972 31.2278C34.4265 31.7814 34.5522 32.3916 34.5522 33.027C34.5522 36.5373 33.1104 39.3493 30.7452 41.2523C28.4176 43.1238 25.2953 44.0359 21.9878 44.0359C18.6802 44.0359 15.5579 43.1238 13.2303 41.2523C10.8682 39.3493 9.42332 36.5373 9.42332 33.027C9.42167 32.4069 9.54241 31.7926 9.7786 31.2194C10.0148 30.6463 10.3618 30.1255 10.7996 29.687C11.2375 29.2486 11.7576 28.9011 12.33 28.6646C12.9023 28.4281 13.5158 28.3072 14.135 28.3088H29.8405C30.7738 28.3086 31.686 28.5859 32.4617 29.1056C33.2373 29.6253 33.8414 30.3639 34.1972 31.2278Z" fill="black"/>
</svg>
