<svg width="51" height="50" viewBox="0 0 51 50" fill="none" xmlns="http://www.w3.org/2000/svg">
<path d="M5.84537 19.6056H45.6327V42.3725C45.6327 42.9214 45.4121 43.4479 45.0194 43.836C44.6267 44.2242 44.0941 44.4422 43.5387 44.4422H7.93944C7.38406 44.4422 6.85142 44.2242 6.45871 43.836C6.06599 43.4479 5.84537 42.9214 5.84537 42.3725V19.6056ZM5.84537 10.2919C5.84537 9.74296 6.06599 9.21652 6.45871 8.82837C6.85142 8.44023 7.38406 8.22217 7.93944 8.22217H43.5387C44.0941 8.22217 44.6267 8.44023 45.0194 8.82837C45.4121 9.21652 45.6327 9.74296 45.6327 10.2919V19.6056H5.84537V10.2919Z" stroke="#0085FF" stroke-width="4" stroke-linejoin="round"/>
<path d="M17.3628 32.0241L23.645 38.2332L36.2094 25.8149" stroke="#0085FF" stroke-width="4" stroke-linecap="round" stroke-linejoin="round"/>
<path d="M17.3628 5.11768V13.3965M34.1153 5.11768V13.3965" stroke="#0085FF" stroke-width="4" stroke-linecap="round"/>
</svg>
