<svg width="49" height="48" viewBox="0 0 49 48" fill="none" xmlns="http://www.w3.org/2000/svg">
<mask id="mask0_93_204" style="mask-type:alpha" maskUnits="userSpaceOnUse" x="2" y="1" width="45" height="45">
<path d="M24.1237 43.7122C35.2267 43.7122 44.2268 34.8167 44.2268 23.8429C44.2268 12.8691 35.2267 3.97363 24.1237 3.97363C13.0208 3.97363 4.02063 12.8691 4.02063 23.8429C4.02063 34.8167 13.0208 43.7122 24.1237 43.7122Z" stroke="white" stroke-width="4" stroke-linecap="round" stroke-linejoin="round"/>
<path d="M24.1237 22.8497C25.4567 22.8497 26.735 22.3263 27.6775 21.3948C28.62 20.4632 29.1495 19.1998 29.1495 17.8824C29.1495 16.5649 28.62 15.3015 27.6775 14.3699C26.735 13.4384 25.4567 12.915 24.1237 12.915C22.7908 12.915 21.5125 13.4384 20.57 14.3699C19.6275 15.3015 19.098 16.5649 19.098 17.8824C19.098 19.1998 19.6275 20.4632 20.57 21.3948C21.5125 22.3263 22.7908 22.8497 24.1237 22.8497Z" fill="white" stroke="white" stroke-width="4" stroke-linejoin="round"/>
<path d="M10.0737 38.0811C10.4194 32.9041 14.7778 28.8101 20.1031 28.8101H28.1443C33.4626 28.8101 37.8169 32.8932 38.1728 38.0602" stroke="white" stroke-width="4" stroke-linecap="round" stroke-linejoin="round"/>
</mask>
<g mask="url(#mask0_93_204)">
<path d="M0 0H48.2474V47.6863H0V0Z" fill="#0085FF"/>
</g>
</svg>
