<svg width="73" height="51" viewBox="0 0 73 51" fill="none" xmlns="http://www.w3.org/2000/svg">
<path d="M71.3876 7.95458C70.9689 6.41709 70.1521 5.01541 69.0186 3.88911C67.8851 2.76282 66.4745 1.95121 64.9271 1.5351C59.2622 0 36.4628 0 36.4628 0C36.4628 0 13.6623 0.0464665 7.99736 1.58157C6.44996 1.9977 5.03928 2.80935 3.90578 3.9357C2.77229 5.06205 1.95554 6.46379 1.53686 8.00133C-0.17664 18.0024 -0.841339 33.2418 1.58391 42.8428C2.00263 44.3803 2.8194 45.782 3.95289 46.9083C5.08638 48.0346 6.49705 48.8462 8.04441 49.2623C13.7093 50.7974 36.5093 50.7974 36.5093 50.7974C36.5093 50.7974 59.309 50.7974 64.9736 49.2623C66.521 48.8463 67.9317 48.0347 69.0653 46.9084C70.1988 45.7821 71.0156 44.3804 71.4344 42.8428C73.2417 32.8276 73.7986 17.5978 71.3876 7.95487V7.95458Z" fill="#FF0000"/>
</svg>
