<svg width="123" height="200" viewBox="0 0 123 200" fill="none" xmlns="http://www.w3.org/2000/svg">
<g clip-path="url(#clip0_71_394)">
<path d="M59.9913 105.401C69.7344 105.401 77.6328 97.4848 77.6328 87.7193C77.6328 77.9538 69.7344 70.0372 59.9913 70.0372C50.2482 70.0372 42.3499 77.9538 42.3499 87.7193C42.3499 97.4848 50.2482 105.401 59.9913 105.401Z" fill="#FF6363"/>
<path d="M17.0856 130.745C16.7118 130.565 16.3932 130.288 16.163 129.943C15.9329 129.597 15.7997 129.196 15.7775 128.781L15.5209 123.912C15.4893 123.299 15.7013 122.7 16.1104 122.244C16.5196 121.788 17.0925 121.513 17.7034 121.48L58.1958 119.336C58.8067 119.305 59.4052 119.517 59.86 119.927C60.3148 120.337 60.5887 120.911 60.6217 121.524L60.8784 126.393C60.9099 127.006 60.6979 127.605 60.2888 128.061C59.8796 128.517 59.3068 128.792 58.696 128.825L18.2035 130.969C17.818 130.99 17.4335 130.913 17.0856 130.745Z" fill="#FF6363"/>
<path d="M44.9992 130.84C44.6053 130.649 44.2734 130.35 44.042 129.978C43.8107 129.606 43.6895 129.175 43.6924 128.737L43.6444 119.568C43.6466 119.265 43.7086 118.964 43.8267 118.684C43.9449 118.404 44.1169 118.151 44.3329 117.937C44.549 117.724 44.8049 117.556 45.086 117.442C45.367 117.328 45.6677 117.27 45.9709 117.273L64.4436 118.905C64.9326 118.908 65.5498 119.667 66.0461 120.277C66.2017 120.468 66.3361 120.634 66.4344 120.734C66.4775 120.777 66.5185 120.823 66.5574 120.869C66.9104 121.291 67.1016 121.825 67.0966 122.375L67.0561 127.251C67.0503 127.864 66.8021 128.45 66.3659 128.88C65.9298 129.31 65.3413 129.549 64.7295 129.544L45.9949 131.068C45.6503 131.067 45.3102 130.989 44.9992 130.84Z" fill="#2F2E41"/>
<path d="M56.5524 200H51.6873C51.0755 199.999 50.489 199.755 50.0564 199.322C49.6239 198.888 49.3806 198.3 49.3799 197.687V156.384C49.3806 155.771 49.6239 155.183 50.0565 154.75C50.489 154.316 51.0755 154.072 51.6873 154.072H56.5524C57.1641 154.072 57.7506 154.316 58.1832 154.75C58.6158 155.183 58.8591 155.771 58.8598 156.384V197.687C58.8591 198.3 58.6158 198.888 58.1832 199.322C57.7506 199.755 57.1641 199.999 56.5524 200Z" fill="#FF6363"/>
<path d="M69.3853 200H64.5202C63.9084 199.999 63.3219 199.755 62.8893 199.322C62.4567 198.888 62.2134 198.3 62.2128 197.687V156.384C62.2135 155.771 62.4568 155.183 62.8893 154.75C63.3219 154.316 63.9084 154.072 64.5202 154.072H69.3853C69.997 154.072 70.5835 154.316 71.0161 154.75C71.4486 155.183 71.692 155.771 71.6926 156.384V197.687C71.692 198.3 71.4486 198.888 71.0161 199.322C70.5835 199.755 69.997 199.999 69.3853 200Z" fill="#FF6363"/>
<path d="M62.3398 94.2728L62.3581 93.612C61.1317 93.5778 60.0504 93.5007 59.2379 92.9058C59.0076 92.7275 58.8182 92.5016 58.6828 92.2435C58.5473 91.9853 58.4689 91.7009 58.453 91.4097C58.4387 91.2317 58.4655 91.0529 58.5315 90.887C58.5974 90.7211 58.7005 90.5728 58.833 90.4534C59.3723 89.9968 60.2402 90.1446 60.8727 90.4353L61.4182 90.686L60.3722 83.0242L59.719 83.1139L60.6087 89.6313C60.2445 89.4958 59.8523 89.4539 59.4678 89.5094C59.0833 89.5648 58.7188 89.7159 58.4074 89.9488C58.198 90.132 58.0336 90.3613 57.9273 90.6188C57.8209 90.8763 57.7753 91.1549 57.7942 91.4329C57.8134 91.8242 57.9178 92.2066 58.1 92.5532C58.2823 92.8998 58.5379 93.2023 58.8491 93.4394C59.893 94.2041 61.2496 94.2422 62.3398 94.2728Z" fill="#2F2E41"/>
<path d="M56.4888 83.6759H52.9382V84.3367H56.4888V83.6759Z" fill="#2F2E41"/>
<path d="M67.6962 83.6759H64.1456V84.3367H67.6962V83.6759Z" fill="#2F2E41"/>
<path d="M80.0899 146.605L63.807 114.06H64.0366C64.6046 114.06 65.1492 113.833 65.5509 113.431C65.9526 113.028 66.1785 112.482 66.1792 111.913V111.252C66.1785 110.683 65.9526 110.137 65.5509 109.734C65.1492 109.332 64.6046 109.105 64.0366 109.104H56.7848C56.2167 109.105 55.6721 109.332 55.2704 109.734C54.8687 110.137 54.6428 110.683 54.6422 111.252V111.913C54.6438 112.438 54.8379 112.944 55.1875 113.336C55.5371 113.727 56.0179 113.976 56.5386 114.035L40.2087 146.623C39.4321 148.173 39.064 149.896 39.1394 151.629C39.2148 153.362 39.7313 155.046 40.6397 156.522C41.548 157.998 42.8181 159.217 44.329 160.062C45.8399 160.907 47.5415 161.351 49.2718 161.351H71.0097C72.7422 161.351 74.4459 160.907 75.9589 160.061C77.4719 159.215 78.7439 157.995 79.6539 156.517C80.5638 155.039 81.0816 153.353 81.1579 151.618C81.2343 149.883 80.8666 148.158 80.0899 146.605Z" fill="#2F2E41"/>
<path d="M60.7533 121.426L97.4828 104.206C98.0372 103.947 98.6716 103.919 99.2467 104.128C99.8218 104.337 100.291 104.766 100.55 105.321L102.612 109.738C102.87 110.294 102.898 110.93 102.69 111.506C102.481 112.083 102.053 112.553 101.499 112.813L64.7697 130.033C64.2153 130.292 63.581 130.32 63.0059 130.111C62.4308 129.902 61.9619 129.473 61.7021 128.918L59.6409 124.501C59.5119 124.226 59.4385 123.928 59.4251 123.625C59.4117 123.321 59.4585 123.018 59.5627 122.733C59.6442 122.507 59.7602 122.294 59.9066 122.104C60.1307 121.813 60.421 121.581 60.7533 121.426Z" fill="#FF6363"/>
<path d="M59.4938 121.32L75.6644 111.659C76.2157 111.394 76.8493 111.359 77.4264 111.561C78.0035 111.764 78.4769 112.187 78.743 112.739L82.8209 120.951C82.9528 121.225 83.0292 121.523 83.0457 121.828C83.0622 122.132 83.0184 122.437 82.917 122.724C82.8156 123.011 82.6585 123.276 82.4547 123.502C82.2509 123.728 82.0045 123.912 81.7296 124.042L64.4555 130.73C64.0032 130.949 63.1151 130.54 62.4016 130.212C62.1778 130.109 61.9845 130.021 61.8525 129.974C61.7944 129.954 61.7375 129.931 61.6822 129.907C61.1801 129.685 60.7737 129.29 60.5362 128.794L58.4275 124.4C58.2419 124.012 58.1674 123.581 58.2123 123.153C58.2571 122.726 58.4196 122.319 58.6815 121.979C58.8972 121.699 59.1754 121.473 59.4938 121.32Z" fill="#2F2E41"/>
<path d="M46.0577 78.5226C45.8217 78.5218 45.5956 78.4274 45.4288 78.2601C45.2619 78.0928 45.1679 77.8661 45.1673 77.6295C45.1663 77.5592 45.1742 77.4891 45.1908 77.4208L49.8018 57.0637C49.8367 56.9104 49.9112 56.769 50.0177 56.6536C50.1243 56.5382 50.2593 56.4528 50.4091 56.4061C50.5589 56.3594 50.7183 56.353 50.8714 56.3874C51.0245 56.4219 51.1659 56.496 51.2814 56.6024L66.5683 70.7909C66.6832 70.8978 66.7682 71.0331 66.8147 71.1833C66.8611 71.3334 66.8675 71.4931 66.833 71.6464C66.7986 71.7998 66.7247 71.9414 66.6186 72.0571C66.5124 72.1729 66.3779 72.2587 66.2283 72.3059L46.3257 78.4823C46.2389 78.5089 46.1486 78.5224 46.0577 78.5226Z" fill="#3F3D56"/>
<path d="M58.5611 63.6408L48.9589 61.7256L49.11 61.0571L57.5991 62.7487L58.5611 63.6408Z" fill="white"/>
<path d="M66.1222 70.6612L47.7629 66.9996L47.914 66.3279L65.1597 69.7655L66.1222 70.6612Z" fill="white"/>
<path d="M59.5542 74.1611L58.1762 74.588L46.5703 72.2732L46.7214 71.6014L59.5542 74.1611Z" fill="white"/>
<path d="M104.319 78.8338C105.919 78.8338 107.216 77.5335 107.216 75.9294C107.216 74.3254 105.919 73.025 104.319 73.025C102.718 73.025 101.421 74.3254 101.421 75.9294C101.421 77.5335 102.718 78.8338 104.319 78.8338Z" fill="#FF6363"/>
<path d="M67.0619 4.14915C68.205 4.14915 69.1317 3.22033 69.1317 2.07457C69.1317 0.928818 68.205 0 67.0619 0C65.9188 0 64.9921 0.928818 64.9921 2.07457C64.9921 3.22033 65.9188 4.14915 67.0619 4.14915Z" fill="#FF6584"/>
<path d="M21.9401 68.4609C23.0832 68.4609 24.0099 67.5321 24.0099 66.3863C24.0099 65.2406 23.0832 64.3118 21.9401 64.3118C20.7969 64.3118 19.8702 65.2406 19.8702 66.3863C19.8702 67.5321 20.7969 68.4609 21.9401 68.4609Z" fill="#FF6584"/>
<path d="M94.3834 61.4073C95.5265 61.4073 96.4532 60.4785 96.4532 59.3328C96.4532 58.187 95.5265 57.2582 94.3834 57.2582C93.2403 57.2582 92.3136 58.187 92.3136 59.3328C92.3136 60.4785 93.2403 61.4073 94.3834 61.4073Z" fill="#FF6363"/>
<path d="M31.4612 89.6216C32.6043 89.6216 33.531 88.6927 33.531 87.547C33.531 86.4012 32.6043 85.4724 31.4612 85.4724C30.318 85.4724 29.3914 86.4012 29.3914 87.547C29.3914 88.6927 30.318 89.6216 31.4612 89.6216Z" fill="#FF6363"/>
<path d="M96.8672 95.4304C98.0103 95.4304 98.937 94.5016 98.937 93.3558C98.937 92.2101 98.0103 91.2812 96.8672 91.2812C95.724 91.2812 94.7974 92.2101 94.7974 93.3558C94.7974 94.5016 95.724 95.4304 96.8672 95.4304Z" fill="#E6E6E6"/>
<path d="M78.6528 21.5755C79.7959 21.5755 80.7226 20.6467 80.7226 19.501C80.7226 18.3552 79.7959 17.4264 78.6528 17.4264C77.5097 17.4264 76.583 18.3552 76.583 19.501C76.583 20.6467 77.5097 21.5755 78.6528 21.5755Z" fill="#CCCCCC"/>
<path d="M0.420895 44.3861C2.5882 44.523 4.6923 45.1727 6.56071 46.282C8.42912 47.3913 10.0087 48.9286 11.1698 50.7679C11.4953 51.2893 11.9201 51.8623 11.6948 52.5041C11.6163 52.7502 11.4569 52.9623 11.2425 53.1058C11.0282 53.2493 10.7716 53.3156 10.5147 53.294C10.1945 53.2249 9.90582 53.0521 9.69325 52.8023C9.48067 52.5525 9.35602 52.2395 9.3385 51.9116C9.32097 51.5838 9.41155 51.2592 9.59627 50.9881C9.781 50.7169 10.0496 50.5142 10.3606 50.4112C11.8638 49.7685 13.3804 50.7617 14.6048 51.5544C17.3947 53.3605 20.4634 54.9939 23.844 55.1997C26.9719 55.3902 30.326 54.1609 32.0658 51.4422C32.3701 50.9666 31.6144 50.5271 31.3116 51.0004C29.5861 53.6966 26.0981 54.665 23.0652 54.2483C21.2579 53.9624 19.5127 53.3685 17.9053 52.4924C17.0717 52.0588 16.2632 51.5781 15.4711 51.0729C14.7173 50.5457 13.9184 50.0866 13.0836 49.701C11.6914 49.1278 9.84845 49.1726 8.87601 50.4923C7.96879 51.7235 8.66991 53.7732 10.1873 54.1194C10.5202 54.1851 10.8641 54.1671 11.1883 54.0668C11.5125 53.9666 11.8068 53.7873 12.0448 53.545C12.2829 53.3027 12.4572 53.005 12.5522 52.6785C12.6472 52.3521 12.6599 52.0071 12.5891 51.6745C12.4377 50.9495 11.8931 50.24 11.4714 49.6474C10.2047 47.8612 8.55425 46.3827 6.64176 45.3206C4.72928 44.2586 2.60344 43.6401 0.420845 43.5107C-0.141014 43.4828 -0.139549 44.3583 0.420845 44.3861L0.420895 44.3861Z" fill="#CCCCCC"/>
<path d="M122.834 70.8872C121.382 69.9501 120.172 68.6814 119.304 67.1851C118.435 65.6888 117.932 64.0075 117.837 62.2789C117.813 61.7904 117.74 61.2274 118.144 60.8692C118.294 60.7288 118.487 60.6434 118.691 60.627C118.895 60.6107 119.099 60.6643 119.269 60.7791C119.465 60.9515 119.599 61.1836 119.65 61.4397C119.701 61.6958 119.666 61.9616 119.552 62.1961C119.437 62.4306 119.249 62.6208 119.015 62.7374C118.782 62.8539 118.517 62.8903 118.261 62.841C116.969 62.7033 116.3 61.4244 115.756 60.3982C114.517 58.0599 113.017 55.7333 110.749 54.2769C108.651 52.9294 105.846 52.4799 103.586 53.6921C103.191 53.9042 103.546 54.5031 103.939 54.292C106.18 53.0898 108.977 53.7725 110.922 55.2402C112.067 56.1409 113.049 57.2314 113.827 58.4644C114.238 59.0894 114.613 59.7373 114.968 60.396C115.288 61.055 115.665 61.6842 116.096 62.2763C116.841 63.2152 118.138 63.9002 119.324 63.3615C119.588 63.2244 119.817 63.0273 119.991 62.7859C120.166 62.5445 120.282 62.2655 120.329 61.9712C120.377 61.677 120.356 61.3755 120.267 61.0911C120.177 60.8066 120.023 60.547 119.816 60.3331C119.61 60.158 119.364 60.0369 119.1 59.9806C118.836 59.9243 118.563 59.9345 118.304 60.0103C118.045 60.0861 117.808 60.2251 117.616 60.4149C117.424 60.6047 117.282 60.8394 117.202 61.0978C117.08 61.7055 117.078 62.3312 117.195 62.9399C117.384 64.6726 117.958 66.3406 118.875 67.8213C119.793 69.3019 121.03 70.5574 122.496 71.4952C122.875 71.7329 123.213 71.1242 122.834 70.8872L122.834 70.8872Z" fill="#CCCCCC"/>
<path d="M51.4105 13.4455C49.6868 13.3367 48.0133 12.8199 46.5272 11.9377C45.0412 11.0554 43.7849 9.83271 42.8614 8.36982C42.6026 7.95512 42.2647 7.49938 42.4439 6.98892C42.5063 6.7932 42.6331 6.62449 42.8036 6.51036C42.9741 6.39624 43.1781 6.34346 43.3824 6.36064C43.6371 6.4156 43.8667 6.55303 44.0358 6.75172C44.2048 6.95042 44.304 7.19935 44.3179 7.46012C44.3319 7.72089 44.2598 7.97902 44.1129 8.19468C43.966 8.41035 43.7524 8.57157 43.505 8.65349C42.3094 9.16463 41.1032 8.37469 40.1294 7.74426C37.9104 6.30776 35.4698 5.00864 32.781 4.84493C30.2932 4.69349 27.6255 5.67115 26.2418 7.83345C25.9997 8.21176 26.6008 8.56133 26.8417 8.18489C28.214 6.04042 30.9882 5.27022 33.4004 5.60167C34.8378 5.82903 36.2259 6.30136 37.5043 6.99819C38.1673 7.34306 38.8103 7.72535 39.4403 8.12723C40.0398 8.54651 40.6753 8.91164 41.3392 9.2183C42.4465 9.67419 43.9123 9.63858 44.6857 8.58896C44.8498 8.34023 44.9535 8.05648 44.9886 7.7604C45.0237 7.46431 44.9892 7.16411 44.8878 6.88378C44.7865 6.60345 44.6211 6.35077 44.4049 6.14595C44.1887 5.94113 43.9278 5.78984 43.6428 5.70419C43.3781 5.65188 43.1045 5.66623 42.8466 5.74596C42.5888 5.82569 42.3547 5.96831 42.1654 6.16103C41.9761 6.35374 41.8374 6.59053 41.7619 6.85017C41.6863 7.10981 41.6762 7.38419 41.7325 7.6487C41.9214 8.23894 42.2234 8.78658 42.6215 9.26098C43.629 10.6816 44.9417 11.8576 46.4628 12.7023C47.9839 13.547 49.6746 14.0389 51.4105 14.1418C51.8574 14.164 51.8562 13.4676 51.4105 13.4455L51.4105 13.4455Z" fill="#CCCCCC"/>
<path d="M52.9872 35.5049H50.9174V42.3213H52.9872V35.5049Z" fill="#CCCCCC"/>
<path d="M19.5211 30.7479L20.9596 29.3062L16.2332 24.5689L14.7947 26.0107L19.5211 30.7479Z" fill="#B3B3B3"/>
<path d="M77.7171 45.0729L79.1555 46.5146L83.8819 41.7774L82.4434 40.3356L77.7171 45.0729Z" fill="#B3B3B3"/>
<path d="M18.9343 103.991L20.3728 105.432L25.0992 100.695L23.6607 99.2535L18.9343 103.991Z" fill="#FF6584"/>
</g>
<defs>
<clipPath id="clip0_71_394">
<rect width="123" height="200" fill="white"/>
</clipPath>
</defs>
</svg>
