<svg width="36" height="34" viewBox="0 0 36 34" fill="none" xmlns="http://www.w3.org/2000/svg">
<path d="M3.46779 32.8574C3.51721 33.2122 3.82267 33.4863 4.18654 33.4863H31.818C32.1774 33.4863 32.4873 33.2167 32.5322 32.8574L35.9643 6.77571V6.75325C35.9778 6.46575 35.6633 6.26809 35.4117 6.42083L26.6699 11.807L18.2875 0.625905C18.2538 0.580903 18.2101 0.544375 18.1598 0.519216C18.1095 0.494056 18.054 0.480957 17.9978 0.480957C17.9415 0.480957 17.8861 0.494056 17.8358 0.519216C17.7855 0.544375 17.7417 0.580903 17.708 0.625905L9.3301 11.807L0.583808 6.42083C0.336738 6.26809 0.0177921 6.46126 0.0357609 6.74876V6.77571L3.46779 32.8574ZM10.1072 15.8904L18 5.36067L25.8928 15.8904L32.1729 12.0226L29.7516 30.4136H6.24396L3.82717 12.0226L10.1072 15.8904Z" fill="#FFD233"/>
</svg>
