<svg width="12" height="12" viewBox="0 0 12 12" fill="none" xmlns="http://www.w3.org/2000/svg">
<path d="M3.375 4.93359C3.375 5.08278 3.43426 5.22585 3.53975 5.33134C3.64524 5.43683 3.78832 5.49609 3.9375 5.49609C4.08668 5.49609 4.22976 5.43683 4.33525 5.33134C4.44074 5.22585 4.5 5.08278 4.5 4.93359C4.5 4.78441 4.44074 4.64134 4.33525 4.53585C4.22976 4.43036 4.08668 4.37109 3.9375 4.37109C3.78832 4.37109 3.64524 4.43036 3.53975 4.53585C3.43426 4.64134 3.375 4.78441 3.375 4.93359ZM7.5 4.93359C7.5 5.08278 7.55926 5.22585 7.66475 5.33134C7.77024 5.43683 7.91332 5.49609 8.0625 5.49609C8.21168 5.49609 8.35476 5.43683 8.46025 5.33134C8.56574 5.22585 8.625 5.08278 8.625 4.93359C8.625 4.78441 8.56574 4.64134 8.46025 4.53585C8.35476 4.43036 8.21168 4.37109 8.0625 4.37109C7.91332 4.37109 7.77024 4.43036 7.66475 4.53585C7.55926 4.64134 7.5 4.78441 7.5 4.93359ZM6 0.75C3.10078 0.75 0.75 3.10078 0.75 6C0.75 8.89922 3.10078 11.25 6 11.25C8.89922 11.25 11.25 8.89922 11.25 6C11.25 3.10078 8.89922 0.75 6 0.75ZM9.08203 9.08203C8.68125 9.48281 8.21484 9.79688 7.6957 10.0172C7.16016 10.2445 6.58945 10.3594 6 10.3594C5.41055 10.3594 4.83984 10.2445 4.30313 10.0172C3.78477 9.79827 3.31392 9.48066 2.9168 9.08203C2.51602 8.68125 2.20195 8.21484 1.98164 7.6957C1.75547 7.16016 1.64062 6.58945 1.64062 6C1.64062 5.41055 1.75547 4.83984 1.98281 4.30313C2.20173 3.78477 2.51934 3.31392 2.91797 2.9168C3.31875 2.51602 3.78516 2.20195 4.3043 1.98164C4.83984 1.75547 5.41055 1.64062 6 1.64062C6.58945 1.64062 7.16016 1.75547 7.69687 1.98281C8.21523 2.20173 8.68607 2.51934 9.0832 2.91797C9.48398 3.31875 9.79805 3.78516 10.0184 4.3043C10.2445 4.83984 10.3594 5.41055 10.3594 6C10.3594 6.58945 10.2445 7.16016 10.0172 7.69687C9.79854 8.21503 9.48088 8.68554 9.08203 9.08203ZM7.78125 6.24609H7.21758C7.16836 6.24609 7.12617 6.28359 7.12266 6.33281C7.07812 6.91289 6.5918 7.37109 6 7.37109C5.4082 7.37109 4.9207 6.91289 4.87734 6.33281C4.87383 6.28359 4.83164 6.24609 4.78242 6.24609H4.21875C4.20603 6.24608 4.19345 6.24865 4.18176 6.25365C4.17007 6.25865 4.15951 6.26598 4.15074 6.27519C4.14198 6.2844 4.13517 6.29529 4.13074 6.30721C4.12632 6.31913 4.12436 6.33183 4.125 6.34453C4.17656 7.33242 4.99805 8.12109 6 8.12109C7.00195 8.12109 7.82344 7.33242 7.875 6.34453C7.87564 6.33183 7.87368 6.31913 7.86926 6.30721C7.86483 6.29529 7.85802 6.2844 7.84926 6.27519C7.84049 6.26598 7.82993 6.25865 7.81824 6.25365C7.80655 6.24865 7.79397 6.24608 7.78125 6.24609Z" fill="black"/>
</svg>
