<svg width="30" height="28" viewBox="0 0 30 28" fill="none" xmlns="http://www.w3.org/2000/svg">
<path d="M2.91667 27.7083H4.375V8.75H2.91667C2.14312 8.75 1.40125 9.05729 0.854272 9.60427C0.307291 10.1513 0 10.8931 0 11.6667V24.7917C0 25.5652 0.307291 26.3071 0.854272 26.8541C1.40125 27.401 2.14312 27.7083 2.91667 27.7083ZM26.25 8.75H16.0417L17.6779 3.83833C17.8239 3.39998 17.8637 2.93321 17.794 2.47648C17.7242 2.01974 17.547 1.5861 17.2768 1.21128C17.0067 0.836465 16.6514 0.531186 16.2401 0.320594C15.8289 0.110001 15.3735 0.000119748 14.9115 0H14.5833L7.29167 7.93042V27.7083H23.3333L29.0383 15.1725L29.1667 14.5833V11.6667C29.1667 10.8931 28.8594 10.1513 28.3124 9.60427C27.7654 9.05729 27.0235 8.75 26.25 8.75Z" fill="black"/>
</svg>
