<svg width="28" height="22" viewBox="0 0 28 22" fill="none" xmlns="http://www.w3.org/2000/svg">
<path d="M6.04276 0.381202C5.92593 0.261995 5.78675 0.166979 5.63318 0.101581C5.47962 0.0361829 5.31467 0.0016854 5.14776 6.02296e-05C4.98086 -0.00156494 4.81527 0.0297136 4.66045 0.0921088C4.50564 0.154504 4.36464 0.246793 4.24551 0.363702C2.89792 1.70347 1.82896 3.29681 1.10029 5.0518C0.37162 6.80679 -0.00233095 8.6887 1.09317e-05 10.589C-0.00217474 12.5621 0.401206 14.5147 1.18512 16.3254C1.96903 18.1362 3.11674 19.7665 4.55701 21.1152C4.79942 21.3393 5.11962 21.4601 5.44964 21.4519C5.77965 21.4437 6.09348 21.3073 6.32451 21.0715C6.87751 20.5185 6.80926 19.6382 6.27726 19.129C5.12138 18.0274 4.20157 16.7023 3.57372 15.2342C2.94587 13.7661 2.62309 12.1857 2.62501 10.589C2.62501 7.35845 3.92176 4.42895 6.02526 2.29745C6.53276 1.7812 6.58526 0.923702 6.04276 0.381202ZM9.12451 3.46645C8.89404 3.2293 8.57895 3.09319 8.2483 3.08794C7.91765 3.0827 7.5984 3.20874 7.36051 3.43845C6.41367 4.37287 5.66212 5.48626 5.14957 6.71384C4.63703 7.94142 4.37374 9.25867 4.37501 10.589C4.37296 11.9955 4.66684 13.3868 5.23757 14.6724C5.8083 15.9579 6.64311 17.1091 7.68776 18.051C7.92794 18.2632 8.24057 18.3748 8.56084 18.3627C8.88111 18.3507 9.18446 18.2159 9.40801 17.9862C9.98201 17.4122 9.87526 16.5092 9.33626 16.0017C8.59743 15.3072 8.0089 14.4685 7.60706 13.5375C7.20522 12.6065 6.99861 11.603 7.00001 10.589C7.00001 8.57645 7.79976 6.74945 9.10001 5.40895C9.60051 4.89445 9.68276 4.0212 9.12451 3.4647V3.46645ZM18.8755 3.46645C19.106 3.2293 19.4211 3.09319 19.7517 3.08794C20.0824 3.0827 20.4016 3.20874 20.6395 3.43845C21.5863 4.37287 22.3379 5.48626 22.8504 6.71384C23.363 7.94142 23.6263 9.25867 23.625 10.589C23.6271 11.9955 23.3332 13.3868 22.7625 14.6724C22.1917 15.9579 21.3569 17.1091 20.3123 18.051C20.0721 18.2632 19.7595 18.3748 19.4392 18.3627C19.1189 18.3507 18.8156 18.2159 18.592 17.9862C18.018 17.4122 18.1248 16.5092 18.6638 16.0017C19.4026 15.3072 19.9911 14.4685 20.393 13.5375C20.7948 12.6065 21.0014 11.603 21 10.589C21 8.57645 20.2003 6.74945 18.9 5.40895C18.3995 4.89445 18.3173 4.0212 18.8755 3.4647V3.46645ZM21.9573 0.382952C22.0741 0.263746 22.2133 0.168729 22.3668 0.103331C22.5204 0.0379327 22.6854 0.00343569 22.8523 0.00181052C23.0192 0.000185348 23.1848 0.0314635 23.3396 0.0938587C23.4944 0.156254 23.6354 0.248543 23.7545 0.365452C25.1019 1.70501 26.1707 3.29806 26.8994 5.05274C27.6281 6.80742 28.0021 8.689 28 10.589C28.0022 12.5621 27.5988 14.5147 26.8149 16.3254C26.031 18.1362 24.8833 19.7665 23.443 21.1152C23.2006 21.3393 22.8804 21.4601 22.5504 21.4519C22.2204 21.4437 21.9065 21.3073 21.6755 21.0715C21.1225 20.5185 21.1908 19.6382 21.7245 19.129C22.8801 18.0272 23.7996 16.7021 24.4271 15.234C25.0547 13.7659 25.3772 12.1855 25.375 10.589C25.375 7.35845 24.0783 4.42895 21.9748 2.29745C21.4673 1.7812 21.4148 0.923702 21.9573 0.381202V0.382952ZM14 7.96395C13.3038 7.96395 12.6361 8.24051 12.1439 8.7328C11.6516 9.22508 11.375 9.89276 11.375 10.589C11.375 11.2851 11.6516 11.9528 12.1439 12.4451C12.6361 12.9374 13.3038 13.214 14 13.214C14.6962 13.214 15.3639 12.9374 15.8562 12.4451C16.3484 11.9528 16.625 11.2851 16.625 10.589C16.625 9.89276 16.3484 9.22508 15.8562 8.7328C15.3639 8.24051 14.6962 7.96395 14 7.96395Z" fill="black"/>
</svg>
