<svg width="21" height="21" viewBox="0 0 21 21" fill="none" xmlns="http://www.w3.org/2000/svg">
<path fill-rule="evenodd" clip-rule="evenodd" d="M20.58 10.7387C20.58 9.99412 20.5132 9.27822 20.3891 8.59094H10.5V12.6525H16.1509C15.9075 13.965 15.1677 15.0771 14.0557 15.8216V18.4562H17.4491C19.4345 16.6282 20.58 13.9364 20.58 10.7387Z" fill="#4285F4"/>
<path fill-rule="evenodd" clip-rule="evenodd" d="M10.5 21C13.335 21 15.7118 20.0598 17.4491 18.4561L14.0557 15.8216C13.1155 16.4516 11.9127 16.8239 10.5 16.8239C7.76523 16.8239 5.45046 14.9768 4.62478 12.495H1.11682V15.2154C2.84455 18.647 6.39546 21 10.5 21Z" fill="#34A853"/>
<path fill-rule="evenodd" clip-rule="evenodd" d="M4.62477 12.495C4.41477 11.865 4.29545 11.192 4.29545 10.5C4.29545 9.80795 4.41477 9.135 4.62477 8.505V5.78455H1.11682C0.405682 7.20205 0 8.80568 0 10.5C0 12.1943 0.405682 13.798 1.11682 15.2155L4.62477 12.495Z" fill="#FBBC05"/>
<path fill-rule="evenodd" clip-rule="evenodd" d="M10.5 4.17614C12.0416 4.17614 13.4257 4.70591 14.5139 5.74636L17.5255 2.73477C15.707 1.04045 13.3302 0 10.5 0C6.39546 0 2.84455 2.35295 1.11682 5.78454L4.62478 8.505C5.45046 6.02318 7.76523 4.17614 10.5 4.17614Z" fill="#EA4335"/>
</svg>
