<svg width="29" height="29" viewBox="0 0 29 29" fill="none" xmlns="http://www.w3.org/2000/svg">
<path d="M14.5 0C6.49187 0 0 6.49187 0 14.5C0 22.5081 6.49187 29 14.5 29C22.5081 29 29 22.5081 29 14.5C29 6.49187 22.5081 0 14.5 0ZM14.3956 6.63757C16.3537 6.6469 18.1435 7.89559 18.9038 9.63776C19.1639 10.2446 19.3021 10.8679 19.3021 11.5441V13.2681H21.6774V22.3624H7.32257V13.2681H9.50678C9.48699 12.0499 9.46193 10.6564 9.8891 9.63771C10.7197 7.80325 12.4374 6.62824 14.3956 6.63757ZM14.2894 9.53331C13.2047 9.55613 12.4894 10.3809 12.3848 11.544V13.2681H16.424V11.5264C16.3742 10.4234 15.5394 9.56369 14.3955 9.53331C14.3601 9.53248 14.3247 9.53248 14.2894 9.53331Z" fill="black" fill-opacity="0.76"/>
</svg>
