<svg width="86" height="86" viewBox="0 0 86 86" fill="none" xmlns="http://www.w3.org/2000/svg">
<g clip-path="url(#clip0_11_125)">
<path d="M85.9998 43C86.0065 48.5239 84.946 53.997 82.8766 59.1186C82.8715 59.1301 82.8677 59.1403 82.8626 59.1517V59.153C81.4716 62.5824 79.6418 65.817 77.4189 68.7758C76.9902 69.3483 76.5479 69.9089 76.092 70.4577C75.9253 70.6587 75.7561 70.8584 75.5869 71.0556C74.7155 72.067 73.7987 73.036 72.8365 73.9625C72.6126 74.1788 72.3861 74.3925 72.1571 74.6037C72.1037 74.6533 72.0503 74.7017 71.9968 74.7513C70.8761 75.7754 69.7019 76.7394 68.4792 77.6392C67.6587 78.246 66.8165 78.8223 65.9526 79.3681C65.7631 79.4889 65.5723 79.6077 65.3802 79.7243C65.0468 79.9278 64.7106 80.1267 64.3713 80.3209C63.9286 80.5754 63.4804 80.8218 63.0266 81.0601C62.8434 81.158 62.659 81.2522 62.4745 81.3463C62.2048 81.485 61.9338 81.6186 61.6603 81.7496C61.6132 81.7725 61.5661 81.7954 61.5191 81.817C61.341 81.9035 61.1603 81.9875 60.9797 82.0715C58.6269 83.1566 56.1801 84.0249 53.6697 84.6655C53.6557 84.6693 53.6429 84.6718 53.629 84.6757C53.4648 84.7176 53.2995 84.7583 53.1341 84.7978C53.0107 84.8283 52.886 84.8576 52.7613 84.8856C52.7459 84.8906 52.7302 84.8944 52.7142 84.897C52.4585 84.9568 52.2028 85.014 51.9446 85.0662C51.7995 85.0967 51.6545 85.1273 51.5095 85.1565C51.4217 85.1756 51.3327 85.1922 51.2449 85.2087C51.1342 85.2303 51.0248 85.2507 50.9141 85.2723C50.853 85.285 50.792 85.2952 50.7296 85.3054C50.5897 85.3308 50.4497 85.3563 50.3111 85.3804C50.0745 85.4212 49.8353 85.4606 49.5974 85.4962C49.4244 85.5229 49.2526 85.5484 49.0796 85.5725C48.8761 85.6018 48.6725 85.6285 48.4677 85.654C48.4117 85.6629 48.3557 85.6692 48.2998 85.6756C48.2272 85.6845 48.1547 85.6934 48.0822 85.7023C47.9359 85.7201 47.7896 85.7367 47.642 85.7519C47.5657 85.7608 47.4906 85.7685 47.4143 85.7761C47.2693 85.7914 47.1243 85.8054 46.9792 85.8181C46.7922 85.8359 46.6052 85.8512 46.4169 85.8664C46.1879 85.8842 45.9602 85.9008 45.7299 85.9148C45.5824 85.9237 45.4348 85.9326 45.2859 85.9402C44.9068 85.9606 44.5277 85.9746 44.1461 85.9847C43.9565 85.9898 43.7657 85.9936 43.5748 85.9962H43.571C43.3815 85.9987 43.1906 86 42.9998 86C41.066 86.0008 39.1342 85.8716 37.2177 85.6133C35.8119 85.425 34.4286 85.1697 33.0678 84.8474C33.0131 84.8347 32.9584 84.822 32.905 84.808C32.7676 84.7762 32.6315 84.7418 32.4953 84.7075C32.3745 84.6769 32.2549 84.6451 32.134 84.6133C29.0193 83.8028 26.0062 82.6423 23.1524 81.1542C23.1384 81.1466 23.1231 81.139 23.1091 81.1313C23.0264 81.0881 22.945 81.0461 22.8636 81.0016C22.6842 80.9074 22.5057 80.8116 22.328 80.7141C21.3166 80.1581 20.3311 79.5636 19.3714 78.9304C19.1246 78.7689 18.8804 78.6048 18.6387 78.4381C18.5611 78.3847 18.4847 78.3312 18.4084 78.2778C18.3282 78.2218 18.2481 78.1659 18.1692 78.1099C17.9593 77.961 17.7507 77.8105 17.5433 77.6582C16.6846 77.0272 15.8513 76.3653 15.0435 75.6724C12.1801 73.2201 9.64985 70.4037 7.51718 67.295C6.77295 66.2111 6.07833 65.0924 5.43333 63.939C1.85887 57.5398 -0.0120783 50.3298 -0.000187817 43C-0.000187817 19.252 19.2519 0 42.9998 0C66.7478 0 85.9998 19.252 85.9998 43Z" fill="#FF6363"/>
<path opacity="0.2" d="M49.9143 84.808C50.0517 84.7762 50.1878 84.7418 50.324 84.7075C50.4448 84.6769 50.5644 84.6451 50.6853 84.6133C50.6916 84.3602 50.7005 84.0815 50.7094 83.78C50.7845 81.4189 50.9613 77.6176 51.3786 73.0377C51.4015 72.7921 51.4244 72.5449 51.4473 72.296C51.5961 70.7439 51.7704 69.1117 51.9791 67.4197C51.9854 67.3637 51.9931 67.309 51.9994 67.253C52.1686 65.8816 52.3607 64.4733 52.577 63.0383C52.7284 62.0345 52.8921 61.0197 53.0681 59.9939C53.0808 59.9227 53.0935 59.8502 53.1062 59.7789C53.1571 59.4825 53.2093 59.1874 53.2627 58.8897C53.4116 58.0615 53.5706 57.2282 53.7372 56.3949C54.3237 53.4638 55.0221 50.5148 55.8554 47.646C56.7019 44.6709 57.7444 41.755 58.9761 38.9176C59.9314 36.7133 61.0693 34.5928 62.378 32.5782C62.397 32.549 62.4161 32.521 62.4352 32.4917C64.1081 29.9715 66.0202 27.833 68.2033 26.2338L67.7504 25.6155C65.6589 27.1485 63.7405 29.1883 61.995 31.7348C61.9861 31.7475 61.9785 31.7589 61.9696 31.7717C60.657 33.718 59.5114 35.7719 58.5448 37.9113C57.2506 40.7729 56.159 43.7219 55.2779 46.7364C54.4433 49.5378 53.6948 52.5728 53.0324 55.8415C52.7996 56.9928 52.5774 58.1726 52.3658 59.3807C52.3302 59.5868 52.2946 59.7929 52.259 60.0003C52.259 60.0028 52.2577 60.0066 52.2577 60.0092C52.203 60.3272 52.1508 60.6453 52.0974 60.9671C51.9651 61.7775 51.8404 62.5815 51.7234 63.3792C51.5427 64.6081 51.3794 65.8159 51.2336 67.0024C51.1852 67.3942 51.1386 67.7831 51.0936 68.169C51.03 68.7135 50.9698 69.2508 50.913 69.7809C50.8328 70.5187 50.7595 71.2409 50.6929 71.9474L50.6738 72.1421C50.6636 72.254 50.6535 72.366 50.6433 72.4766C50.1268 78.0476 49.9652 82.5473 49.9143 84.808Z" fill="black"/>
<path opacity="0.2" d="M59.667 81.1542C59.681 81.1466 59.6962 81.139 59.7102 81.1313C59.9723 80.9952 60.2318 80.8565 60.4914 80.7141C60.5766 79.6989 60.6911 78.5831 60.8412 77.4102C60.873 77.1685 60.9048 76.9229 60.9405 76.6761C60.9583 76.5438 60.9773 76.4102 60.9964 76.2754C61.1465 75.2424 61.3246 74.1763 61.5384 73.1051C62.4073 68.7339 63.8499 64.2659 66.2455 61.5078C66.374 61.359 66.505 61.2165 66.6411 61.0778C66.9785 60.7273 67.3449 60.406 67.7365 60.1173L67.2836 59.5003C66.737 59.9046 66.2339 60.3646 65.7824 60.873C65.6234 61.0498 65.4682 61.2339 65.3168 61.4251C63.1121 64.1998 61.7356 68.3077 60.8781 72.3749C60.6542 73.4359 60.4659 74.4956 60.3056 75.5273C60.2649 75.797 60.2259 76.0642 60.1886 76.3288C59.9405 78.0768 59.7764 79.7281 59.667 81.1542Z" fill="black"/>
<path opacity="0.2" d="M72.4815 26.216C74.5956 26.216 76.3094 24.5023 76.3094 22.3882C76.3094 20.2741 74.5956 18.5604 72.4815 18.5604C70.3675 18.5604 68.6537 20.2741 68.6537 22.3882C68.6537 24.5023 70.3675 26.216 72.4815 26.216Z" fill="black"/>
<path opacity="0.2" d="M71.2487 59.1669C73.3628 59.1669 75.0766 57.4531 75.0766 55.3391C75.0766 53.225 73.3628 51.5112 71.2487 51.5112C69.1347 51.5112 67.4209 53.225 67.4209 55.3391C67.4209 57.4531 69.1347 59.1669 71.2487 59.1669Z" fill="black"/>
<path opacity="0.2" d="M57.2849 28.8178C58.0966 33.3974 56.3047 37.5441 56.3047 37.5441C56.3047 37.5441 53.1968 34.2658 52.3851 29.6863C51.5734 25.1068 53.3653 20.9601 53.3653 20.9601C53.3653 20.9601 56.4732 24.2383 57.2849 28.8178Z" fill="black"/>
<path opacity="0.2" d="M70.0064 39.6886C65.6383 41.2859 61.249 40.2609 61.249 40.2609C61.249 40.2609 63.9418 36.6462 68.3098 35.049C72.6779 33.4518 77.0671 34.4768 77.0671 34.4768C77.0671 34.4768 74.3744 38.0914 70.0064 39.6886Z" fill="black"/>
<path opacity="0.2" d="M70.747 68.8678C67.6854 69.9873 64.6045 69.257 64.6045 69.257C64.6045 69.257 66.4875 66.7116 69.5492 65.592C72.6108 64.4725 75.6917 65.2028 75.6917 65.2028C75.6917 65.2028 73.8087 67.7483 70.747 68.8678Z" fill="black"/>
<path d="M55.9712 68.2237L56.1264 68.3038C56.1111 68.4692 56.0742 68.571 55.9712 68.2237Z" fill="#2F2E41"/>
<path d="M56.1761 68.2771C56.1774 68.2949 56.1799 68.314 56.1812 68.3318L56.1265 68.3039C56.1277 68.2873 56.129 68.2695 56.1316 68.2517C56.1443 68.0291 56.129 67.7657 56.1761 68.2771Z" fill="#2F2E41"/>
<path d="M39.652 62.191C51.1895 62.191 60.5425 52.838 60.5425 41.3005C60.5425 29.763 51.1895 20.41 39.652 20.41C28.1145 20.41 18.7615 29.763 18.7615 41.3005C18.7615 52.838 28.1145 62.191 39.652 62.191Z" fill="#2F2E41"/>
<path d="M41.3717 61.3395C48.3587 61.3395 54.0229 55.6754 54.0229 48.6883C54.0229 41.7012 48.3587 36.0371 41.3717 36.0371C34.3846 36.0371 28.7205 41.7012 28.7205 48.6883C28.7205 55.6754 34.3846 61.3395 41.3717 61.3395Z" fill="#D0CDE1"/>
<path d="M70.2592 72.9359L70.2439 72.9397L67.3013 73.6458L61.1745 75.1164L60.3386 75.3174L51.0211 77.5527L50.2298 77.7435L27.6243 83.1681C26.0961 82.5836 24.6031 81.9111 23.1525 81.1542C23.1385 81.1466 23.1233 81.139 23.1093 81.1313C23.0266 81.0881 22.9452 81.0461 22.8638 81.0016C22.6844 80.9074 22.5058 80.8116 22.3282 80.714C21.3168 80.1581 20.3312 79.5636 19.3716 78.9304C19.1248 78.7689 18.8805 78.6048 18.6388 78.4381C18.5612 78.3847 18.4849 78.3312 18.4085 78.2778C18.3284 78.2218 18.2483 78.1658 18.1694 78.1099C17.9595 77.961 17.7508 77.8105 17.5435 77.6582C19.7393 73.6674 24.968 71.0149 30.1967 69.5633C34.143 68.4667 35.0106 64.8626 34.9356 61.6554C34.9165 60.9238 34.8545 60.194 34.7498 59.4698C34.5904 58.317 34.3368 57.1793 33.9916 56.0679L46.6435 56.4903L47.9488 59.4977C47.9131 59.8281 47.9016 60.1606 47.9144 60.4926C48.0137 62.9594 49.5365 64.5547 51.4155 65.5839C51.6598 65.7175 51.9104 65.8422 52.1648 65.9579C55.2461 67.3586 58.8731 67.454 58.8731 67.454C59.9775 67.3319 61.0931 67.3529 62.1922 67.5164C62.4594 67.5571 62.7189 67.6058 62.9708 67.6627C64.4415 67.9913 65.8308 68.6131 67.0558 69.4908C67.5237 69.8236 67.9663 70.1906 68.3801 70.5887C69.1157 71.2771 69.7485 72.0675 70.2592 72.9359Z" fill="#D0CDE1"/>
<path d="M72.1573 74.6037C72.1038 74.6533 72.0504 74.7017 71.997 74.7513C70.8763 75.7754 69.7021 76.7393 68.4794 77.6392C67.6588 78.246 66.8166 78.8223 65.9528 79.3681C65.7632 79.4889 65.5724 79.6077 65.3803 79.7243C65.047 79.9278 64.7107 80.1267 64.3715 80.3209C63.9287 80.5754 63.4805 80.8217 63.0268 81.0601C62.8436 81.158 62.6591 81.2522 62.4746 81.3463C62.2049 81.485 61.9339 81.6186 61.6604 81.7496C61.6134 81.7725 61.5663 81.7954 61.5192 81.817L60.9811 81.3705L67.3013 73.6458L68.5722 72.0924C68.5722 72.0924 69.0798 72.0924 70.2439 72.9397C70.8873 73.4185 71.4953 73.9432 72.0631 74.5096C72.0937 74.5414 72.1255 74.5719 72.1573 74.6037Z" fill="#D0CDE1"/>
<path d="M72.0682 74.5172C72.0511 74.5971 72.0273 74.6754 71.997 74.7513C70.8763 75.7754 69.7021 76.7394 68.4794 77.6392C67.4185 78.0216 66.3179 78.2832 65.1984 78.419C65.1984 78.419 65.2938 78.8974 65.3803 79.7243C65.047 79.9278 64.7107 80.1267 64.3715 80.3209C63.9288 80.5754 63.4805 80.8218 63.0268 81.0601C62.8436 81.158 62.6591 81.2522 62.4747 81.3463C62.205 81.485 61.934 81.6186 61.6605 81.7496C61.6134 81.7725 61.5663 81.7954 61.5192 81.817C61.3411 81.9035 61.1605 81.9875 60.9798 82.0715C58.6271 83.1566 56.1803 84.0249 53.6698 84.6655C53.6558 84.6693 53.6431 84.6718 53.6291 84.6756C53.465 84.7176 53.2996 84.7583 53.1342 84.7978C53.0108 84.8283 52.8862 84.8576 52.7615 84.8856C52.7461 84.8906 52.7304 84.8944 52.7144 84.897C52.4587 84.9568 52.203 85.014 51.9447 85.0662C51.7997 85.0967 51.6547 85.1273 51.5097 85.1565C51.4219 85.1756 51.3328 85.1922 51.245 85.2087C51.1344 85.2303 51.025 85.2507 50.9143 85.2723C50.8532 85.285 50.7921 85.2952 50.7298 85.3054C50.5899 85.3308 50.4499 85.3563 50.3113 85.3804C50.0746 85.4211 49.8355 85.4606 49.5976 85.4962C49.4245 85.5229 49.2528 85.5484 49.0798 85.5725C48.8762 85.6018 48.6727 85.6285 48.4678 85.654C48.4119 85.6629 48.3559 85.6692 48.2999 85.6756C48.2274 85.6845 48.1549 85.6934 48.0824 85.7023C47.9361 85.7201 47.7898 85.7366 47.6422 85.7519C47.5659 85.7608 47.4908 85.7685 47.4145 85.7761C47.2695 85.7914 47.1244 85.8054 46.9794 85.8181C46.7924 85.8359 46.6054 85.8511 46.4171 85.8664C46.1881 85.8842 45.9604 85.9008 45.7301 85.9148C45.5825 85.9237 45.4349 85.9326 45.2861 85.9402C44.907 85.9606 44.5279 85.9746 44.1462 85.9847C43.9567 85.9898 43.7658 85.9936 43.575 85.9962H43.5712C43.3816 85.9987 43.1908 86 43 86C41.0661 86.0008 39.1344 85.8716 37.2179 85.6133C35.8121 85.425 34.4288 85.1697 33.068 84.8474C33.0133 84.8347 32.9586 84.8219 32.9052 84.808C32.7678 84.7761 32.6316 84.7418 32.4955 84.7075C32.3747 84.6769 32.2551 84.6451 32.1342 84.6133C29.0194 83.8028 26.0064 82.6423 23.1526 81.1542C23.1386 81.1466 23.1233 81.139 23.1093 81.1313C23.0266 81.0881 22.9452 81.0461 22.8638 81.0016C29.8468 79.3744 40.8818 76.8084 50.4576 74.6101C50.726 74.549 50.9927 74.488 51.2578 74.4269C54.7944 73.6152 58.1072 72.8595 60.9099 72.2273C61.1999 72.1624 61.484 72.0988 61.7622 72.0364C64.7735 71.3596 67.1118 70.8457 68.3802 70.5887C68.722 70.5106 69.0677 70.4499 69.4157 70.4068L72.0631 74.5096L72.0682 74.5172Z" fill="#2F2E41"/>
<path d="M20.5394 32.4109C23.9761 32.4109 26.7621 29.6249 26.7621 26.1882C26.7621 22.7515 23.9761 19.9655 20.5394 19.9655C17.1026 19.9655 14.3167 22.7515 14.3167 26.1882C14.3167 29.6249 17.1026 32.4109 20.5394 32.4109Z" fill="#2F2E41"/>
<path d="M58.7646 30.633C62.2013 30.633 64.9873 27.847 64.9873 24.4103C64.9873 20.9736 62.2013 18.1876 58.7646 18.1876C55.3279 18.1876 52.5419 20.9736 52.5419 24.4103C52.5419 27.847 55.3279 30.633 58.7646 30.633Z" fill="#2F2E41"/>
<path d="M52.0974 21.7434C52.0976 20.2086 52.665 18.7281 53.6906 17.5863C54.7161 16.4445 56.1275 15.7219 57.6534 15.5575C56.7844 15.4626 55.9051 15.5518 55.0729 15.8194C54.2407 16.087 53.4742 16.5269 52.8234 17.1106C52.1725 17.6942 51.6519 18.4084 51.2956 19.2066C50.9392 20.0049 50.755 20.8692 50.755 21.7434C50.755 22.6176 50.9392 23.482 51.2956 24.2802C51.6519 25.0785 52.1725 25.7927 52.8234 26.3763C53.4742 26.9599 54.2407 27.3998 55.0729 27.6674C55.9051 27.935 56.7844 28.0243 57.6534 27.9293C56.1275 27.7649 54.7161 27.0424 53.6906 25.9006C52.665 24.7587 52.0976 23.2782 52.0974 21.7434Z" fill="#2F2E41"/>
<path d="M13.5865 31.2216C12.5126 30.1252 11.8817 28.6706 11.8151 27.1373C11.7485 25.6039 12.2509 24.1001 13.2258 22.9147C12.5386 23.4551 11.9731 24.1342 11.5659 24.9078C11.1587 25.6814 10.9191 26.532 10.8627 27.4044C10.8063 28.2768 10.9343 29.1512 11.2384 29.9708C11.5425 30.7904 12.0159 31.5367 12.6277 32.1611C13.2395 32.7855 13.976 33.274 14.7892 33.5948C15.6024 33.9155 16.4741 34.0614 17.3474 34.0227C18.2207 33.9841 19.0761 33.7619 19.8578 33.3706C20.6395 32.9793 21.33 32.4277 21.8843 31.7517C20.6793 32.7022 19.1655 33.1738 17.6339 33.076C16.1023 32.9782 14.6608 32.3177 13.5865 31.2216Z" fill="#2F2E41"/>
<path d="M39.652 31.5219C32.2876 31.5219 26.3176 35.0044 26.3176 39.3003C26.3176 41.2225 27.5176 42.9792 29.4985 44.3364L32.0655 42.4764L31.3674 45.3903C31.6571 45.5245 31.9528 45.6544 32.2613 45.7745L36.0962 41.3005V46.7968C37.272 46.9852 38.4611 47.0795 39.652 47.0787C47.0163 47.0787 52.9863 43.5962 52.9863 39.3003C52.9863 35.0044 47.0163 31.5219 39.652 31.5219Z" fill="#2F2E41"/>
<path d="M52.5418 24.4103C52.5418 24.4103 51.5754 28.8551 57.6146 30.633L52.5418 24.4103Z" fill="#2F2E41"/>
<path d="M26.3176 25.2193C26.3176 25.2193 28.54 30.1885 21.8728 32.4109L26.3176 25.2193Z" fill="#2F2E41"/>
<path d="M29.6135 53.6551C30.1742 53.4981 30.3233 52.28 29.9466 50.9343C29.5699 49.5887 28.8099 48.625 28.2492 48.782C27.6885 48.9389 27.5394 50.1571 27.9161 51.5028C28.2928 52.8484 29.0528 53.8121 29.6135 53.6551Z" fill="#D0CDE1"/>
<path d="M55.286 49.1748C55.3719 47.78 54.9704 46.6203 54.3892 46.5845C53.8081 46.5487 53.2673 47.6504 53.1814 49.0452C53.0955 50.44 53.497 51.5997 54.0782 51.6355C54.6593 51.6712 55.2001 50.5696 55.286 49.1748Z" fill="#D0CDE1"/>
</g>
<defs>
<clipPath id="clip0_11_125">
<rect width="86" height="86" fill="white"/>
</clipPath>
</defs>
</svg>
