<svg width="86" height="86" viewBox="0 0 86 86" fill="none" xmlns="http://www.w3.org/2000/svg">
<g clip-path="url(#clip0_11_110)">
<path d="M86 43C86.0077 48.8209 84.8294 54.5823 82.5371 59.9328L82.3946 60.2611C78.5171 69.0823 71.7935 76.3485 63.2991 80.8978C54.8047 85.447 45.0302 87.0164 35.5386 85.355C35.2803 85.3092 35.0225 85.2617 34.7651 85.2125C32.1054 84.6969 29.5009 83.9288 26.987 82.9188C26.5786 82.7546 26.1732 82.5846 25.7707 82.4086C25.4959 82.289 25.2212 82.1656 24.9489 82.0384C17.5014 78.5867 11.1959 73.0779 6.77559 66.1613C2.35527 59.2446 0.00437208 51.2085 0 43C0 19.252 19.252 0 43 0C66.748 0 86 19.252 86 43Z" fill="#6C63FF"/>
<path opacity="0.2" d="M35.5387 85.355C35.2804 85.3092 35.0226 85.2617 34.7652 85.2125C34.5972 80.3388 34.0209 70.3355 32.0554 59.8591C30.9804 54.1253 29.4881 48.2478 27.4183 42.9936C26.7092 41.1756 25.8992 39.3986 24.9922 37.6708C22.9007 33.7207 20.364 30.3951 17.2878 28.1421L17.7407 27.5238C20.2991 29.399 22.5984 32.0316 24.6386 35.4216C25.2505 36.4368 25.8382 37.5198 26.4018 38.6707C27.0061 39.9022 27.5824 41.2096 28.1307 42.5929C28.4806 43.4733 28.8185 44.3841 29.1447 45.3256C30.5644 49.4131 31.7713 54.077 32.7653 59.3171C32.9854 60.4748 33.1949 61.6609 33.3938 62.8754C34.9344 72.2858 35.3987 80.9863 35.5387 85.355Z" fill="black"/>
<path opacity="0.2" d="M25.7707 82.4086C25.4959 82.289 25.2211 82.1656 24.9489 82.0384C24.683 79.1505 24.1945 75.568 23.3014 72.1675C22.9102 70.6402 22.4081 69.1435 21.7989 67.6894C20.7799 65.304 19.4606 63.2761 17.7546 62.0256L18.2075 61.4086C19.9937 62.7164 21.3715 64.7837 22.4363 67.2021C23.636 69.9271 24.4362 73.0987 24.9692 76.1291C25.3649 78.3796 25.6142 80.5537 25.7707 82.4086Z" fill="black"/>
<path opacity="0.2" d="M13.0096 28.1243C15.1237 28.1243 16.8374 26.4105 16.8374 24.2965C16.8374 22.1824 15.1237 20.4686 13.0096 20.4686C10.8955 20.4686 9.18176 22.1824 9.18176 24.2965C9.18176 26.4105 10.8955 28.1243 13.0096 28.1243Z" fill="black"/>
<path opacity="0.2" d="M14.2424 61.0752C16.3564 61.0752 18.0702 59.3614 18.0702 57.2474C18.0702 55.1333 16.3564 53.4195 14.2424 53.4195C12.1283 53.4195 10.4146 55.1333 10.4146 57.2474C10.4146 59.3614 12.1283 61.0752 14.2424 61.0752Z" fill="black"/>
<path opacity="0.2" d="M28.2062 30.7261C27.3945 35.3056 29.1864 39.4523 29.1864 39.4523C29.1864 39.4523 32.2943 36.1741 33.1061 31.5946C33.9178 27.015 32.1259 22.8683 32.1259 22.8683C32.1259 22.8683 29.018 26.1466 28.2062 30.7261Z" fill="black"/>
<path opacity="0.2" d="M15.4847 41.5969C19.8528 43.1942 24.2421 42.1692 24.2421 42.1692C24.2421 42.1692 21.5493 38.5545 17.1813 36.9573C12.8132 35.36 8.42395 36.385 8.42395 36.385C8.42395 36.385 11.1167 39.9997 15.4847 41.5969Z" fill="black"/>
<path opacity="0.2" d="M14.7441 70.7761C17.8058 71.8956 20.8867 71.1653 20.8867 71.1653C20.8867 71.1653 19.0036 68.6199 15.942 67.5003C12.8803 66.3808 9.79944 67.1111 9.79944 67.1111C9.79944 67.1111 11.6825 69.6566 14.7441 70.7761Z" fill="black"/>
<path d="M42.9117 52.5222C52.17 52.5222 59.6754 45.0169 59.6754 35.7585C59.6754 26.5002 52.17 18.9949 42.9117 18.9949C33.6534 18.9949 26.1481 26.5002 26.1481 35.7585C26.1481 45.0169 33.6534 52.5222 42.9117 52.5222Z" fill="#D0CDE1"/>
<path d="M36.3634 48.5932C36.3634 48.5932 38.4589 58.5466 38.4589 59.5944C38.4589 60.6421 48.4123 65.3569 48.4123 65.3569L57.318 63.7853L60.4612 54.3557C60.4612 54.3557 55.2225 46.4978 55.2225 43.3546L36.3634 48.5932Z" fill="#D0CDE1"/>
<path d="M82.5371 59.9328L82.3946 60.2611C78.517 69.0823 71.7935 76.3485 63.2991 80.8978C54.8047 85.447 45.0301 87.0164 35.5386 85.355C35.2803 85.3092 35.0225 85.2617 34.7651 85.2125C32.1053 84.6969 29.5008 83.9289 26.9869 82.9188C26.5785 82.7547 26.1731 82.5846 25.7707 82.4086C25.4959 82.289 25.2211 82.1656 24.9489 82.0384C22.4812 80.8952 20.1277 79.5201 17.92 77.9318L15.9329 72.1675L17.0498 71.3151L19.3474 69.5608L21.7989 67.6894L22.4363 67.2021L32.0553 59.8591L32.7652 59.3171L37.7649 55.5005L37.7662 55.4993C37.7662 55.4993 43.173 64.3092 51.0313 61.6897C58.8896 59.0703 58.7179 51.5593 58.7179 51.5593L82.5371 59.9328Z" fill="#2F2E41"/>
<path d="M28.3743 22.2526C28.3743 22.2526 33.6967 10.7208 43.898 13.382C54.0993 16.0432 59.8652 20.035 60.3087 24.0268C60.7523 28.0186 60.087 34.0063 60.087 34.0063C60.087 34.0063 58.9781 25.8009 51.8816 27.575C44.7851 29.3492 33.6967 28.0186 33.6967 28.0186L31.9226 43.9858C31.9226 43.9858 29.9267 41.1028 27.709 42.8769C25.4914 44.6511 21.2778 25.8009 28.3743 22.2526Z" fill="#2F2E41"/>
<path d="M26.9869 82.9188C26.5786 82.7546 26.1732 82.5846 25.7707 82.4086C25.4959 82.289 25.2211 82.1656 24.9489 82.0384C20.8676 80.1459 17.1077 77.6261 13.8058 74.5706C14.9749 72.9779 15.9329 72.1675 15.9329 72.1675H23.7912L24.9692 76.1291L26.9869 82.9188Z" fill="#2F2E41"/>
<path d="M75.6533 59.0703L82.3946 60.2611C80.5906 64.3709 78.1541 68.1729 75.1737 71.5288L75.6533 59.0703Z" fill="#2F2E41"/>
</g>
<defs>
<clipPath id="clip0_11_110">
<rect width="86" height="86" fill="white"/>
</clipPath>
</defs>
</svg>
