<svg width="31" height="31" viewBox="0 0 31 31" fill="none" xmlns="http://www.w3.org/2000/svg">
<path d="M15.5 26C11.8542 26 8.63127 24.1333 6.75002 21.3333C6.79377 18.4167 12.5834 16.8125 15.5 16.8125C18.4167 16.8125 24.2063 18.4167 24.25 21.3333C23.2859 22.7689 21.9836 23.9454 20.4577 24.7592C18.9319 25.573 17.2293 25.9991 15.5 26ZM15.5 5.29166C16.6603 5.29166 17.7731 5.75259 18.5936 6.57306C19.4141 7.39354 19.875 8.50633 19.875 9.66666C19.875 10.827 19.4141 11.9398 18.5936 12.7602C17.7731 13.5807 16.6603 14.0417 15.5 14.0417C14.3397 14.0417 13.2269 13.5807 12.4064 12.7602C11.586 11.9398 11.125 10.827 11.125 9.66666C11.125 8.50633 11.586 7.39354 12.4064 6.57306C13.2269 5.75259 14.3397 5.29166 15.5 5.29166ZM15.5 0.916656C13.5849 0.916656 11.6886 1.29387 9.91922 2.02675C8.14989 2.75963 6.54223 3.83383 5.18805 5.18802C2.45314 7.92292 0.916687 11.6322 0.916687 15.5C0.916687 19.3677 2.45314 23.0771 5.18805 25.812C6.54223 27.1661 8.14989 28.2404 9.91922 28.9732C11.6886 29.7061 13.5849 30.0833 15.5 30.0833C19.3678 30.0833 23.0771 28.5469 25.812 25.812C28.5469 23.0771 30.0834 19.3677 30.0834 15.5C30.0834 7.43541 23.5209 0.916656 15.5 0.916656Z" fill="black" fill-opacity="0.75"/>
</svg>
