<svg width="32" height="32" viewBox="0 0 32 32" fill="none" xmlns="http://www.w3.org/2000/svg">
<g clip-path="url(#clip0_250_4073)">
<path d="M16 0C11.7565 0 7.68687 1.68571 4.68629 4.68629C1.68571 7.68687 0 11.7565 0 16C0 20.2435 1.68571 24.3131 4.68629 27.3137C7.68687 30.3143 11.7565 32 16 32C20.2435 32 24.3131 30.3143 27.3137 27.3137C30.3143 24.3131 32 20.2435 32 16C32 11.7565 30.3143 7.68687 27.3137 4.68629C24.3131 1.68571 20.2435 0 16 0V0ZM8 8H24C24.286 8 24.562 8.062 24.818 8.176L16 18.462L7.182 8.176C7.43886 8.05926 7.71786 7.99923 8 8ZM6 22V10L6.004 9.874L11.868 16.716L6.068 22.516C6.02219 22.3479 5.99931 22.1743 6 22ZM24 24H8C7.824 24 7.65 23.976 7.484 23.932L13.176 18.24L16.002 21.536L18.828 18.24L24.52 23.932C24.3519 23.9778 24.1783 24.0007 24.004 24H24ZM26 22C26 22.176 25.976 22.35 25.932 22.516L20.132 16.716L25.996 9.874L26 10V22Z" fill="#222222"/>
</g>
<defs>
<clipPath id="clip0_250_4073">
<rect width="32" height="32" fill="white"/>
</clipPath>
</defs>
</svg>
