<svg width="33" height="32" viewBox="0 0 33 32" fill="none" xmlns="http://www.w3.org/2000/svg">
<path d="M26.7162 17.3065C26.7712 16.8798 26.8125 16.4532 26.8125 15.9998C26.8125 15.5465 26.7712 15.1198 26.7162 14.6932L29.6175 12.4932C29.8787 12.2932 29.9475 11.9332 29.7825 11.6398L27.0325 7.0265C26.9087 6.81317 26.675 6.69317 26.4275 6.69317C26.345 6.69317 26.2625 6.7065 26.1937 6.73317L22.77 8.0665C22.055 7.53317 21.285 7.09317 20.4462 6.75984L19.9237 3.2265C19.8825 2.9065 19.5937 2.6665 19.25 2.6665H13.75C13.4062 2.6665 13.1175 2.9065 13.0762 3.2265L12.5537 6.75984C11.715 7.09317 10.945 7.5465 10.23 8.0665L6.80624 6.73317C6.72374 6.7065 6.64124 6.69317 6.55874 6.69317C6.32499 6.69317 6.09124 6.81317 5.96749 7.0265L3.21749 11.6398C3.03874 11.9332 3.12124 12.2932 3.38249 12.4932L6.28374 14.6932C6.22874 15.1198 6.18749 15.5598 6.18749 15.9998C6.18749 16.4398 6.22874 16.8798 6.28374 17.3065L3.38249 19.5065C3.12124 19.7065 3.05249 20.0665 3.21749 20.3598L5.96749 24.9732C6.09124 25.1865 6.32499 25.3065 6.57249 25.3065C6.65499 25.3065 6.73749 25.2932 6.80624 25.2665L10.23 23.9332C10.945 24.4665 11.715 24.9065 12.5537 25.2398L13.0762 28.7732C13.1175 29.0932 13.4062 29.3332 13.75 29.3332H19.25C19.5937 29.3332 19.8825 29.0932 19.9237 28.7732L20.4462 25.2398C21.285 24.9065 22.055 24.4532 22.77 23.9332L26.1937 25.2665C26.2762 25.2932 26.3587 25.3065 26.4412 25.3065C26.675 25.3065 26.9087 25.1865 27.0325 24.9732L29.7825 20.3598C29.9475 20.0665 29.8787 19.7065 29.6175 19.5065L26.7162 17.3065ZM23.9937 15.0265C24.0487 15.4398 24.0625 15.7198 24.0625 15.9998C24.0625 16.2798 24.035 16.5732 23.9937 16.9732L23.8012 18.4798L25.025 19.4132L26.51 20.5332L25.5475 22.1465L23.8012 21.4665L22.3712 20.9065L21.1337 21.8132C20.5425 22.2398 19.9787 22.5598 19.415 22.7865L17.9575 23.3598L17.7375 24.8665L17.4625 26.6665H15.5375L15.2762 24.8665L15.0562 23.3598L13.5987 22.7865C13.0075 22.5465 12.4575 22.2398 11.9075 21.8398L10.6562 20.9065L9.19874 21.4798L7.45249 22.1598L6.48999 20.5465L7.97499 19.4265L9.19874 18.4932L9.00624 16.9865C8.96499 16.5732 8.93749 16.2665 8.93749 15.9998C8.93749 15.7332 8.96499 15.4265 9.00624 15.0265L9.19874 13.5198L7.97499 12.5865L6.48999 11.4665L7.45249 9.85317L9.19874 10.5332L10.6287 11.0932L11.8662 10.1865C12.4575 9.75984 13.0212 9.43984 13.585 9.21317L15.0425 8.63984L15.2625 7.13317L15.5375 5.33317H17.4487L17.71 7.13317L17.93 8.63984L19.3875 9.21317C19.9787 9.45317 20.5287 9.75984 21.0787 10.1598L22.33 11.0932L23.7875 10.5198L25.5337 9.83984L26.4962 11.4532L25.025 12.5865L23.8012 13.5198L23.9937 15.0265ZM16.5 10.6665C13.4612 10.6665 11 13.0532 11 15.9998C11 18.9465 13.4612 21.3332 16.5 21.3332C19.5387 21.3332 22 18.9465 22 15.9998C22 13.0532 19.5387 10.6665 16.5 10.6665ZM16.5 18.6665C14.9875 18.6665 13.75 17.4665 13.75 15.9998C13.75 14.5332 14.9875 13.3332 16.5 13.3332C18.0125 13.3332 19.25 14.5332 19.25 15.9998C19.25 17.4665 18.0125 18.6665 16.5 18.6665Z" fill="black"/>
</svg>
